<?xml version="1.0" standalone="no"?>
<!DOCTYPE svg PUBLIC "-//W3C//DTD SVG 20010904//EN"
 "http://www.w3.org/TR/2001/REC-SVG-20010904/DTD/svg10.dtd">
<svg version="1.0" xmlns="http://www.w3.org/2000/svg"
 width="1180.000000pt" height="1180.000000pt" viewBox="0 0 1180.000000 1180.000000"
 preserveAspectRatio="xMidYMid meet">

<g transform="translate(0.000000,1180.000000) scale(0.100000,-0.100000)"
fill="#000000" stroke="none">
<path d="M2679 10952 c6 -12 135 -148 286 -303 151 -155 273 -284 270 -287 -2
-3 -91 51 -197 120 -106 68 -210 135 -231 147 -74 45 -65 33 156 -215 42 -47
77 -93 77 -100 0 -37 -67 -1 -225 121 -101 78 -164 120 -171 112 -6 -5 37 -95
66 -137 45 -67 63 -103 49 -98 -8 3 -82 54 -164 112 -221 158 -390 256 -415
241 -14 -9 14 -60 130 -236 94 -143 112 -179 91 -179 -12 0 -35 19 -224 187
-83 73 -177 154 -211 180 -52 41 -58 44 -39 18 49 -70 292 -354 337 -395 121
-111 160 -150 150 -150 -7 0 -92 54 -190 120 -99 66 -183 120 -187 120 -16 0
14 -38 129 -165 185 -206 324 -375 324 -396 0 -29 -52 1 -266 151 -31 22 -59
38 -61 36 -2 -1 15 -31 37 -64 23 -34 44 -78 47 -98 6 -36 5 -37 -18 -30 -13
5 -40 9 -59 10 -19 1 -54 12 -78 24 -23 13 -54 27 -68 32 -25 10 -24 9 8 -29
18 -21 76 -85 129 -142 96 -104 385 -440 554 -642 110 -133 163 -213 148 -228
-20 -20 -102 32 -409 263 -116 87 -216 158 -221 158 -18 0 -22 -665 -28 -4512
l-6 -3708 1081 0 1080 0 0 1343 0 1342 68 81 c37 44 224 271 417 502 192 232
354 421 360 419 5 -2 479 -732 1052 -1623 1124 -1746 1279 -1984 1318 -2026
l26 -28 1159 0 c638 0 1160 2 1160 4 0 22 -811 1310 -1470 2336 -764 1189
-1427 2187 -1692 2545 -62 84 -88 128 -88 147 0 43 -32 97 -95 160 -32 32 -55
58 -52 58 3 0 26 -14 51 -30 89 -61 215 -121 243 -118 26 3 28 6 27 43 -1 52
-58 166 -129 260 -29 39 -190 212 -357 385 -484 501 -578 608 -578 651 0 57
83 11 586 -327 234 -156 431 -284 438 -284 16 0 241 77 268 91 23 13 44 54 53
107 4 23 10 42 13 42 4 0 22 -9 41 -21 18 -11 35 -18 38 -16 5 6 -47 91 -155
255 -45 68 -82 130 -82 138 0 18 23 18 63 -2 20 -10 -40 57 -159 178 -357 362
-405 418 -358 418 22 0 29 -4 489 -305 561 -367 605 -392 605 -349 0 11 -16
66 -35 124 -19 58 -37 116 -40 130 -2 14 -39 66 -80 115 -83 98 -111 144 -102
169 10 24 43 20 188 -25 72 -22 140 -39 151 -37 16 2 -6 33 -117 158 -176 199
-212 260 -157 260 9 0 113 -48 230 -107 186 -94 215 -106 225 -93 7 9 30 23
52 31 50 19 81 64 90 132 11 79 -82 -48 759 1037 752 970 791 1023 769 1031
-10 4 -523 8 -1139 11 l-1122 4 -27 -44 c-15 -23 -97 -134 -181 -245 -85 -111
-197 -262 -250 -334 -53 -73 -100 -133 -104 -133 -5 0 -50 25 -101 56 -99 60
-158 89 -167 80 -2 -3 28 -56 68 -118 105 -163 113 -176 106 -194 -9 -24 -34
-12 -231 114 -233 149 -405 252 -422 252 -7 0 -13 -4 -13 -8 0 -16 114 -147
254 -291 258 -267 331 -345 389 -415 54 -66 71 -106 45 -106 -18 0 -124 61
-275 158 -166 107 -232 146 -238 140 -8 -7 48 -80 285 -372 253 -313 289 -362
290 -393 0 -45 -58 -24 -208 74 -80 53 -222 158 -575 426 -166 126 -230 167
-243 154 -11 -11 48 -115 165 -296 147 -226 145 -220 79 -179 -302 193 -444
275 -456 263 -17 -16 57 -125 267 -390 46 -58 82 -108 79 -110 -2 -2 -67 45
-144 106 -151 119 -306 229 -323 229 -30 0 8 -68 186 -337 142 -213 147 -238
31 -153 -357 260 -585 416 -595 406 -9 -9 51 -82 255 -310 309 -346 343 -395
209 -305 -37 24 -63 36 -65 29 -2 -6 4 -48 13 -93 9 -45 15 -93 14 -107 -4
-22 -9 -25 -46 -24 -28 0 -40 -3 -35 -10 3 -6 81 -101 172 -211 331 -398 409
-499 396 -512 -23 -24 -104 35 -721 527 -604 481 -799 630 -828 630 -7 0 172
-203 492 -558 180 -200 244 -279 238 -296 -9 -25 -93 -9 -198 37 -159 70 -161
67 -49 -58 141 -156 140 -156 4 -86 -124 64 -185 78 -198 45 -8 -20 11 -93 64
-249 22 -65 40 -130 40 -144 0 -29 -12 -45 -214 -290 l-161 -193 -3 508 c-1
279 2 512 6 516 5 5 55 -14 112 -42 57 -27 105 -48 108 -45 9 8 -46 79 -168
216 -106 118 -146 172 -107 142 123 -96 148 -115 152 -111 2 2 -45 66 -105
142 -203 260 -189 278 74 92 72 -51 154 -108 181 -126 l50 -34 -48 59 c-157
197 -263 352 -255 375 2 7 14 3 31 -10 20 -16 11 1 -32 61 -122 171 -150 215
-157 242 -5 24 -3 27 17 27 13 0 44 -12 68 -25 32 -19 46 -22 52 -14 11 19 46
5 204 -86 83 -48 168 -96 190 -107 l39 -21 -34 39 c-18 22 -105 114 -193 205
-155 162 -197 212 -186 224 3 3 54 -18 113 -46 59 -28 110 -49 113 -45 12 12
-62 92 -419 452 -202 204 -368 376 -368 382 0 24 30 10 156 -69 71 -45 194
-122 274 -172 80 -50 200 -126 268 -170 68 -43 125 -77 128 -75 2 3 -55 74
-127 159 -72 85 -136 165 -142 179 -7 14 -42 72 -79 128 -70 106 -82 142 -50
142 26 0 125 -62 253 -158 l114 -86 -191 200 c-280 291 -344 366 -344 402 0 6
8 12 18 12 23 0 176 -105 337 -231 164 -129 321 -246 347 -260 18 -10 19 -9 8
11 -6 12 -60 85 -119 163 -59 78 -151 201 -205 272 -175 234 -208 274 -240
294 -17 10 -92 35 -166 55 -203 53 -241 69 -389 160 -172 105 -293 176 -303
176 -19 0 -3 -23 75 -111 l82 -94 -82 57 c-45 32 -219 160 -387 285 -167 125
-319 236 -336 247 -32 18 -32 18 -21 -2z"/>
<path d="M3935 10559 c21 -30 73 -97 115 -149 144 -176 187 -214 161 -139 -6
18 -9 35 -6 37 3 3 32 -7 64 -22 74 -36 89 -32 57 15 -21 30 -380 295 -418
308 -7 2 5 -20 27 -50z"/>
</g>
</svg>
