<?xml version="1.0" encoding="UTF-8" standalone="no"?>
<!DOCTYPE svg PUBLIC "-//W3C//DTD SVG 1.1//EN" "http://www.w3.org/Graphics/SVG/1.1/DTD/svg11.dtd">
<!-- Created with Vectornator (http://vectornator.io/) -->
<svg stroke-miterlimit="10" style="fill-rule:nonzero;clip-rule:evenodd;stroke-linecap:round;stroke-linejoin:round;" version="1.1" viewBox="0 0 1281 408" xml:space="preserve" xmlns="http://www.w3.org/2000/svg" xmlns:xlink="http://www.w3.org/1999/xlink">
<defs/>
<clipPath id="ArtboardFrame">
<rect height="408" width="1281" x="0" y="0"/>
</clipPath>
<g clip-path="url(#ArtboardFrame)" id="Untitled">
<path d="M-0.201119 204L-0.201119 408L640.299 408L1280.8 408L1280.8 204L1280.8-6.07967e-06L640.299-6.07967e-06L-0.201119-6.07967e-06L-0.201119 204ZM76.4989 41.7C85.3989 48.6 87.7989 49.7 83.2989 45C79.2989 40.9 81.0989 41.2 89.2989 46.3C95.8989 50.3 105.399 54 109.199 54C110.099 54 112.299 56.1 114.099 58.7C115.799 61.2 119.999 66.8 123.199 70.9C132.099 82.3 131.499 81.5 129.799 80.5C128.999 80 124.599 76.7 120.099 73.1C115.499 69.6 110.499 65.8 108.799 64.7C103.099 61.1 105.399 65.5 113.899 74.4L121.999 83L116.699 79.4C110.899 75.6 108.999 76.2 112.699 80.9C113.899 82.3 115.199 84.4 115.699 85.5C116.199 86.6 118.799 90 121.399 93C124.899 96.9 125.499 98 123.599 96.8C108.199 86.9 96.5989 79.9 96.2989 80.2C95.9989 80.4 101.699 86.4 108.899 93.5C116.099 100.6 122.399 107.2 122.899 108.3C123.899 110 123.699 110 119.899 108C117.599 106.9 115.799 106.3 115.799 106.8C115.799 107.2 118.899 110.7 122.799 114.5C126.599 118.3 129.599 121.6 129.299 121.8C129.099 122 125.999 120.5 122.399 118.5C118.799 116.5 115.399 115.1 114.899 115.4C114.399 115.8 113.699 115.6 113.299 115C112.399 113.6 110.799 113.7 110.799 115.2C110.799 115.9 111.999 118.1 113.499 120.3C114.999 122.4 116.299 125.1 116.499 126.3C116.699 127.4 118.299 130.2 120.099 132.4C125.599 139.2 125.399 139.6 118.999 135.1C115.699 132.7 112.499 131 111.899 131.1C111.299 131.3 112.699 133.9 114.999 136.9C118.799 141.8 118.899 142.1 116.199 140.4C113.699 138.7 113.799 139.2 117.599 143.8C119.999 146.6 122.399 149.2 122.899 149.6C123.399 149.9 123.799 150.6 123.799 151.1C123.799 151.6 121.999 151.1 119.799 150L115.799 148L115.799 166.5L115.799 185.1L118.599 181.8C120.099 180 123.299 176.1 125.699 173.2L129.999 167.9L127.899 162.1C125.699 156.1 125.299 153 126.599 153C126.999 153 129.599 154.2 132.299 155.7C137.699 158.5 137.599 158.2 131.899 151.6C129.599 149.1 129.599 148.8 131.299 149.5C144.899 154.9 144.799 154.6 128.099 135.8C122.799 129.9 117.999 125.4 117.399 125.7C116.799 126 116.599 126 116.999 125.5C117.399 125.1 117.199 124 116.499 123.2C113.899 119.9 119.599 124.1 138.299 139.1C161.199 157.5 168.899 163.2 169.599 162.5C170.199 161.9 162.799 152.3 154.599 142.8C150.199 137.8 149.299 136.3 150.899 136.7C152.999 137.3 153.099 137.1 152.399 133.2C151.699 128.4 152.199 128.1 155.699 131.2L158.199 133.5L156.299 130.5C155.299 128.8 150.999 123.8 146.899 119.2C142.699 114.7 139.099 110.5 138.899 109.9C138.499 108.5 145.499 113 154.299 119.6C158.099 122.5 161.499 124.7 161.699 124.4C161.899 124.2 160.099 121 157.599 117.3C155.199 113.5 152.299 109.1 151.199 107.5L149.299 104.5L152.299 106.4C153.999 107.4 158.099 110.5 161.599 113.2C164.999 116 167.799 117.9 167.799 117.6C167.799 117.3 164.799 113.3 161.199 108.8C157.199 104 154.999 100.4 155.699 100.2C156.399 100 160.799 102.3 165.499 105.5C170.199 108.6 173.699 110.6 173.199 109.8C172.799 109.1 170.199 105.2 167.599 101.1C164.999 97.1 162.799 93.3 162.799 92.8C162.799 91.7 166.799 94.3 174.799 100.6C188.799 111.8 198.799 117.8 198.799 115.2C198.799 114.7 193.999 108.4 188.199 101C176.699 86.7 176.699 86.7 190.299 95.7C192.999 97.5 195.599 99 195.999 99C198.199 99 195.699 95.8 184.299 84C167.799 66.9 167.799 66.3 184.399 77C190.399 80.9 195.399 83.6 195.599 83C195.799 82.5 194.599 80.1 192.899 77.8C191.199 75.5 189.799 73.2 189.799 72.7C189.799 72.2 191.899 73 194.399 74.5C198.199 76.7 199.199 77 199.899 75.9C200.699 74.4 203.899 70.1 210.999 61C213.399 57.9 215.999 54.4 216.799 53.2L218.299 51L258.099 51.2L297.899 51.5L271.199 86C255.099 106.7 244.199 121.7 243.799 123.5C243.399 125.4 242.199 127 240.499 127.8C237.999 129 237.199 128.8 231.099 125.5C221.199 120.1 220.299 121.2 227.699 129.8C231.099 133.7 233.699 137 233.499 137C233.199 137 231.099 136.3 228.799 135.5C223.899 133.8 220.799 133.6 220.799 135C220.799 135.5 222.399 137.8 224.399 140C226.399 142.2 227.799 144 227.399 144C227.099 144 227.499 145.8 228.399 148C229.299 150.1 229.799 152.4 229.599 153C229.399 153.7 220.999 148.7 210.899 142.1C186.699 126.1 185.399 126 200.599 141.4C205.899 146.8 209.699 151 209.099 150.6C206.999 149.5 207.599 152.2 210.099 156C215.599 164.2 216.399 165.6 214.499 164.1C212.999 162.9 212.799 163 212.799 164.8C212.799 167.3 211.299 168.5 205.699 170.4L201.099 172L184.699 161C169.199 150.6 165.799 148.8 165.799 150.9C165.799 152.1 173.699 160.9 187.899 175.5C197.299 185.2 202.799 192.8 202.799 196C202.799 197.6 199.899 197.2 196.999 195.2C191.899 191.7 191.299 191.6 194.099 194.9C195.599 196.7 196.799 198.8 196.799 199.5C196.799 200.3 199.299 204.4 202.399 208.7C217.299 229.4 248.299 276.9 288.399 340.5L310.499 375.5L269.899 375.8C238.299 376 229.099 375.7 228.199 374.8C227.299 373.8 168.099 282.2 147.899 250.4L145.299 246.4L130.499 264.3L115.799 282.2L115.799 329.1L115.799 376L78.2989 376L40.7989 376L40.7989 231.9L40.7989 87.8L44.5989 90.6C46.5989 92.1 50.4989 95.2 53.1989 97.3C59.4989 102.2 63.7989 104.5 63.7989 102.9C63.7989 101.4 59.5989 96.2 45.5989 80.3C36.6989 70.1 35.2989 68.2 37.3989 68.4C38.6989 68.6 40.0989 69 40.3989 69.3C42.0989 71 42.5989 68.5 41.1989 65.7L39.4989 62.5L42.8989 65.1C47.4989 68.6 50.7989 70.3 50.7989 69.2C50.7989 68.6 47.0989 64 42.5989 58.9C37.9989 53.8 34.9989 50 35.7989 50.5C36.5989 51 39.8989 53.1 43.0989 55.2C46.1989 57.3 48.7989 58.9 48.7989 58.8C48.7989 58.6 45.6989 55.3 41.8989 51.4C33.6989 43 30.0989 37.2 36.8989 43.5C48.5989 54.3 50.2989 54.6 43.7989 45C41.4989 41.6 39.7989 38.6 40.0989 38.3C40.8989 37.6 45.5989 40.3 53.9989 46.3L61.6989 51.9L59.4989 48.2C55.0989 41.2 55.1989 41.4 58.2989 43.4C59.9989 44.4 62.1989 46 63.2989 47C65.9989 49.4 69.7989 51.3 69.7989 50.2C69.7989 49.8 67.4989 46.8 64.5989 43.6L59.3989 37.7L63.7989 40.5C66.2989 42.1 69.6989 44.3 71.2989 45.5C79.1989 51.3 77.7989 49.1 64.2989 35.1L56.2989 26.8L62.2989 31.1C65.5989 33.5 71.9989 38.3 76.4989 41.7ZM108.499 45.5C113.999 49.1 117.999 53.1 114.599 51.7C109.699 49.7 109.799 49.7 110.399 51.6C111.199 53.9 110.699 53.3 104.799 46.1C99.7989 40 99.8989 40 108.499 45.5ZM597.799 111C611.599 137.7 625.899 165 629.399 171.7L635.899 184L622.599 184L609.199 184L604.999 175.5L600.799 167L571.499 167.2L542.299 167.5L538.399 175.7L534.399 184L505.899 184L477.299 184L454.299 161L431.299 138L424.599 144.7L417.799 151.4L417.799 167.7L417.799 184L405.799 184L393.799 184L393.799 124L393.799 64L405.799 64L417.799 64L417.799 92C417.799 107.4 418.099 120 418.599 120C418.999 120 431.899 107.4 447.299 92L475.299 64L491.299 64L507.299 64L478.499 92.8C462.699 108.6 449.799 122 449.799 122.5C449.799 123.1 463.199 136.9 479.699 153.4L509.499 183.2L540.899 122.7C558.099 89.4 572.299 62.2 572.399 62.3C572.499 62.4 583.899 84.3 597.799 111ZM798.899 97.6L841.299 133.1L841.599 98.6L841.799 64L854.299 64L866.799 64L866.799 124.6C866.799 172.8 866.499 185 865.599 184.3C864.899 183.9 845.699 168.1 822.999 149.3C800.299 130.4 781.599 115 781.299 115C780.999 115 780.799 130.5 780.799 149.5L780.799 184L768.299 184L755.799 184L755.799 123C755.799 89.4 755.999 62 756.199 62C756.399 62 775.599 78 798.899 97.6ZM1077.3 63.5C1088.8 66.4 1097.6 71.6 1106.6 80.7C1111.2 85.3 1114.8 89.5 1114.6 90C1114.4 90.6 1110.3 93.9 1105.3 97.4L1096.4 103.8L1090.7 97.9C1086.9 93.9 1082.8 90.9 1078.2 88.7C1072 85.8 1070.4 85.5 1062.3 85.5C1054.4 85.5 1052.6 85.8 1047.3 88.4C1039.7 92.2 1033.3 98.8 1029.4 107C1026.6 112.9 1026.3 114.4 1026.3 123.5C1026.3 132.6 1026.6 134.1 1029.4 140.1C1033.5 148.7 1038.3 153.9 1046 158.1C1052 161.3 1052.8 161.5 1062.3 161.5C1071 161.5 1073 161.2 1078 158.8C1087.5 154.4 1095 145.1 1099.2 132.7C1099.7 131.2 1101.2 131 1111.8 131C1125.9 131 1125.5 130.4 1121 143.6C1117.5 153.6 1112.5 161.2 1104.4 168.7C1096.7 176 1091.4 179.2 1081.2 182.6C1071.5 185.8 1057 186.3 1047.1 183.7C1027 178.4 1010.4 162.8 1004.1 143.3C992.999 108.7 1012.3 72.9 1047.2 63.5C1054.1 61.6 1070 61.6 1077.3 63.5ZM972.599 123C989.799 156.1 1003.8 183.3 1003.8 183.5C1003.8 183.8 997.899 184 990.799 184L977.799 184L973.599 175.5L969.399 167L940.099 167L910.799 167L906.899 175.5L902.899 184L890.299 184L877.599 184L886.299 167.2C921.199 99.6 940.399 63 940.899 63C941.199 63 955.399 90 972.599 123ZM1213.7 122.9C1230.8 155.9 1244.8 183.1 1244.8 183.4C1244.8 183.8 1238.9 184 1231.8 184L1218.8 184L1214.6 175.5L1210.4 167L1181.3 167L1152.2 167L1148 175.5L1143.8 184L1131.3 184L1118.8 184L1129.8 162.7C1135.8 151.1 1149.9 123.8 1161.1 102.3C1172.2 80.7 1181.6 63 1181.9 63C1182.3 63 1196.6 90 1213.7 122.9ZM702.099 65.6C718.899 69.9 731.999 82.5 736.299 98.4C738.699 107.1 737.999 122.1 734.899 130.2C731.599 138.7 724.999 147.1 717.999 151.6C714.599 153.7 711.899 155.9 711.899 156.3C711.799 156.7 717.399 163 724.199 170.3L736.599 183.5L720.599 183.8L704.599 184.1L694.599 173.5L684.599 163L678.199 163L671.799 163L671.799 173.5L671.799 184L659.299 184L646.799 184L646.799 124L646.799 64L671.399 64C690.499 64 697.399 64.3 702.099 65.6ZM479.599 215.2C483.599 216.7 489.699 219.7 493.099 221.9C501.999 227.7 512.799 239.3 512.799 243C512.799 244.7 492.999 260 490.899 260C490.399 260 488.299 257.7 486.299 255C479.299 245.5 469.499 240.5 457.799 240.5C451.299 240.5 449.299 241 443.599 243.8C421.199 254.8 417.099 286.5 435.899 303.4C447.499 313.8 464.599 314.9 478.099 306C481.999 303.3 486.799 297.7 486.799 295.7C486.799 295.3 479.899 294.9 471.599 294.8L456.299 294.5L455.999 282.4C455.799 273 456.099 270 457.099 269.1C458.199 268.3 467.299 268 490.399 268.2L522.299 268.5L522.099 278C521.599 304.7 503.899 328.9 478.299 337.7C471.399 340 468.699 340.4 458.299 340.4C438.299 340.5 426.299 335.6 412.299 321.5C399.299 308.6 393.899 295 393.799 275.9C393.799 260.7 398.899 246.2 408.099 235.3C417.099 224.7 427.999 217.4 439.999 213.9C449.699 211 469.699 211.7 479.599 215.2ZM613.599 274.3C631.299 308.5 645.599 337.1 645.299 337.8C644.999 338.8 641.299 339 629.599 338.8L614.299 338.5L610.299 330.8L606.299 323L578.499 323L550.799 323L546.999 330.7L543.299 338.5L528.799 338.5C516.299 338.5 514.299 338.3 513.999 336.9C513.799 336 526.599 310.4 542.399 279.9C577.999 211.1 577.499 212 579.599 212C580.799 212 590.199 229.3 613.599 274.3ZM686.199 235.5C703.199 248.4 717.499 259 717.999 259C718.399 259 732.799 248.4 749.799 235.4C768.499 221.3 781.499 212 782.599 212.2C784.199 212.5 784.299 216.6 784.299 275.5L784.299 338.5L769.799 338.5L755.299 338.5L754.799 303.7L754.299 268.9L736.299 281.8C721.899 292.3 717.999 294.6 716.599 293.9C715.599 293.4 707.399 287.6 698.299 281C689.299 274.4 681.599 269 681.299 269C681.099 269 680.699 284.6 680.599 303.7L680.299 338.5L666.299 338.5L652.299 338.5L651.999 275.2C651.799 215.5 651.899 212 653.499 212C654.499 212 669.199 222.6 686.199 235.5ZM945.799 215.2C951.399 217.7 962.799 227.3 962.799 229.4C962.799 230.7 942.399 246 940.699 246C940.099 246 938.199 244.9 936.399 243.5C929.999 238.6 922.099 239.4 919.799 245.1C916.999 251.7 922.399 256.3 934.299 257.6C952.699 259.6 966.699 269.9 971.299 284.8C973.499 291.7 973.599 303.8 971.499 311.1C968.199 322.2 957.499 333.6 946.099 338.1C941.199 340 938.499 340.4 929.299 340.4C917.099 340.3 910.399 338.5 901.899 333C895.899 329.2 888.399 321.5 889.199 320.1C889.599 319.5 894.899 315.4 900.999 311L912.099 302.9L915.199 305.9C920.899 311.5 930.099 313.6 935.799 310.7C939.999 308.6 942.999 303.1 942.499 298.7C941.399 290.5 937.799 287.8 924.499 285.1C907.999 281.8 898.499 275.1 892.999 263.1C889.299 255.1 889.299 242.9 892.999 234.9C897.399 225.3 906.199 217.1 915.799 213.6C922.799 211.1 938.599 211.9 945.799 215.2ZM871.299 227.5L871.299 240.5L852.099 240.8L832.799 241L832.799 250L832.799 259L855.099 259.2L877.299 259.5L877.299 272.5L877.299 285.5L855.099 285.8L832.799 286L832.799 299L832.799 312L857.299 312L881.799 312L881.799 325.5L881.799 339L842.599 338.8L803.299 338.5L802.999 277.5C802.899 243.9 802.999 215.9 803.299 215.2C803.599 214.2 810.999 214 837.499 214.2L871.299 214.5L871.299 227.5Z" fill="#000000" fill-rule="nonzero" opacity="1" stroke="none"/>
<path d="M561.899 126.2L553.199 144.5L571.099 144.8C580.999 144.9 589.299 144.9 589.499 144.6C589.999 144.1 571.999 108 571.199 108C570.899 108 566.699 116.2 561.899 126.2Z" fill="#000000" fill-rule="nonzero" opacity="1" stroke="none"/>
<path d="M930.699 125.6C926.099 135.3 922.199 143.7 921.999 144.1C921.799 144.6 929.999 145 940.199 145L958.799 145L949.599 126.5C944.499 116.3 940.099 108 939.699 108C939.399 108 935.399 115.9 930.699 125.6Z" fill="#000000" fill-rule="nonzero" opacity="1" stroke="none"/>
<path d="M1172 125.5C1166.9 135.8 1162.9 144.5 1163.1 144.7C1163.3 144.9 1171.6 144.9 1181.5 144.8L1199.4 144.5L1190.3 125.6L1181.1 106.6L1172 125.5Z" fill="#000000" fill-rule="nonzero" opacity="1" stroke="none"/>
<path d="M671.799 113.6L671.799 141.3L682.599 140.7C695.999 140 699.899 138.7 705.799 133C713.899 125.1 715.899 111.8 710.699 100.1C707.999 94 705.299 91.2 699.299 88.4C694.999 86.3 692.799 86 683.099 86L671.799 86L671.799 113.6Z" fill="#000000" fill-rule="nonzero" opacity="1" stroke="none"/>
<path d="M449.299 216.7C426.899 219.7 406.899 237.5 400.299 260.4C397.999 268.2 397.999 283.4 400.299 292C402.999 302.3 407.399 309.7 416.299 318.6C428.399 330.8 440.699 336 457.799 336C467.899 336 475.799 334.2 484.799 329.8C493.099 325.7 505.999 313.1 510.599 304.3C514.399 297 517.799 284.7 517.799 277.8L517.799 273L489.299 273L460.699 273L460.999 281.7L461.299 290.5L476.799 290.8C485.299 290.9 492.699 291.5 493.099 291.9C494.599 293.4 488.799 302.8 483.499 307.5C474.699 315.5 460.899 318.7 448.799 315.6C433.299 311.6 421.899 298.6 419.999 283C418.199 267.6 422.399 255.3 432.799 245.7C441.199 237.9 447.399 235.7 459.799 236.2C467.999 236.6 470.099 237.1 475.299 239.7C478.699 241.4 483.599 245.2 486.599 248.4L491.899 254L499.799 248.3L507.699 242.6L505.799 239.9C504.699 238.5 501.099 234.7 497.799 231.7C485.499 220.2 466.599 214.4 449.299 216.7Z" fill="#000000" fill-rule="nonzero" opacity="0.7" stroke="none"/>
<path d="M576.199 225.1C572.099 233.3 533.499 307.8 526.099 321.7L519.699 334L530.099 334L540.499 334L544.099 326L547.699 318L578.599 318L609.399 318L613.299 326L617.199 334L627.999 334C633.899 334 638.799 333.9 638.799 333.7C638.799 333 580.599 221.4 579.799 220.6C579.299 220.1 577.799 222.1 576.199 225.1ZM589.299 277C594.499 287.4 598.799 296.9 598.799 298C598.799 299.9 598.199 300 578.799 300C563.299 300 558.599 299.7 558.199 298.7C557.499 296.7 576.499 258 578.299 258C579.199 258 583.299 264.9 589.299 277Z" fill="#000000" fill-rule="nonzero" opacity="0.7" stroke="none"/>
<path d="M571.899 279.2C568.399 286.5 565.399 293.1 565.099 293.7C564.699 294.7 567.799 295 578.599 295L592.699 295L586.099 281.2C582.499 273.7 579.199 267.1 578.799 266.7C578.399 266.3 575.299 271.9 571.899 279.2Z" fill="#000000" fill-rule="nonzero" opacity="1" stroke="none"/>
<path d="M655.799 276.4L655.799 334L666.299 334L676.799 334L676.799 297.9L676.799 261.8L679.099 262.2C680.299 262.5 689.499 268.6 699.499 275.9C711.299 284.4 718.199 288.9 718.999 288.4C719.699 288 728.299 281.8 737.999 274.7C748.499 267.1 756.499 262 757.499 262.2C759.199 262.5 759.299 265 759.599 298.3L759.799 334L769.799 334L779.799 334L779.799 276.4L779.799 218.8L776.599 221.2C774.799 222.5 760.999 233 745.899 244.4C730.899 255.8 717.999 264.9 717.299 264.6C716.599 264.4 703.099 254.3 687.199 242.3C671.299 230.2 657.699 220 657.099 219.6C656.099 219 655.799 230.7 655.799 276.4Z" fill="#000000" fill-rule="nonzero" opacity="0.7" stroke="none"/>
<path d="M919.499 217.4C908.899 220.3 898.399 230.9 895.699 241.4C893.099 252 896.799 264.1 904.799 271.4C910.199 276.2 915.799 278.7 925.599 280.6C938.699 283.1 942.299 285 945.699 291.8C947.399 295.1 947.299 304.2 945.399 307.8C940.299 317.6 925.899 319.7 915.299 312.1L911.299 309.2L903.099 315.3C893.799 322.2 893.799 321.8 903.099 328C915.799 336.5 933.699 338.5 945.999 332.8C976.499 318.6 975.899 275.4 944.999 264.6C942.599 263.7 937.099 262.6 932.699 262.1C919.399 260.4 914.799 256.8 914.799 248.2C914.799 243.4 915.199 242.4 918.199 239.4C921.299 236.3 922.099 236 927.499 236C931.499 236 934.299 236.6 936.599 238C938.399 239.1 940.299 240 940.899 240C941.399 240 945.299 237.5 949.499 234.4L957.199 228.7L954.199 226.3C948.999 222 943.399 219.1 937.299 217.6C930.299 215.7 925.999 215.7 919.499 217.4Z" fill="#000000" fill-rule="nonzero" opacity="0.7" stroke="none"/>
<path d="M807.799 276L807.799 334L842.799 334L877.799 334L877.799 325L877.799 316L853.099 315.8L828.299 315.5L827.999 299.1C827.799 286.6 828.099 282.5 828.999 281.8C829.699 281.4 839.899 281 851.599 281L872.799 281L872.799 272L872.799 263L850.599 262.8L828.299 262.5L828.299 249.5L828.299 236.5L847.599 236.2L866.799 236L866.799 227L866.799 218L837.299 218L807.799 218L807.799 276Z" fill="#000000" fill-rule="nonzero" opacity="0.7" stroke="none"/>
</g>
</svg>
