<?xml version="1.0" standalone="no"?>
<!DOCTYPE svg PUBLIC "-//W3C//DTD SVG 20010904//EN"
 "http://www.w3.org/TR/2001/REC-SVG-20010904/DTD/svg10.dtd">
<svg version="1.0" xmlns="http://www.w3.org/2000/svg"
 width="1281.000000pt" height="408.000000pt" viewBox="0 0 1281.000000 408.000000"
 preserveAspectRatio="xMidYMid meet">

<g transform="translate(0.000000,408.000000) scale(0.100000,-0.100000)"
fill="#000000" stroke="none">
<path d="M578 3795 c6 -11 42 -51 81 -90 39 -38 71 -73 71 -77 0 -5 -23 7 -51
27 -77 52 -84 47 -31 -22 31 -42 21 -42 -39 3 -48 35 -60 33 -39 -7 15 -27 2
-24 -50 12 -61 41 -121 72 -127 65 -4 -3 11 -31 31 -62 21 -31 36 -57 34 -59
-2 -2 -36 23 -76 56 -39 34 -72 58 -72 54 0 -4 20 -32 45 -64 50 -63 55 -77
24 -61 -38 21 -31 3 26 -61 56 -62 81 -99 70 -99 -3 0 -23 11 -43 25 -45 31
-58 32 -38 3 23 -32 21 -35 -21 -30 -44 5 -46 8 50 -98 84 -93 211 -250 206
-255 -3 -2 -51 30 -107 72 -57 41 -106 72 -109 69 -4 -3 -9 -652 -11 -1441
l-5 -1435 387 0 386 0 0 473 1 472 140 169 c78 92 145 164 149 160 5 -5 177
-271 383 -591 206 -320 388 -601 404 -625 l29 -43 91 -8 c51 -5 238 -5 417 0
l325 8 -170 270 c-301 477 -519 813 -724 1118 -213 318 -245 367 -245 380 0 5
15 7 33 5 29 -3 32 -1 29 21 -4 35 -59 105 -212 266 -128 136 -160 175 -142
175 4 0 79 -47 166 -105 87 -58 166 -105 177 -105 32 0 90 28 115 56 26 28 25
31 -22 101 -13 20 -22 38 -20 41 3 2 20 -6 38 -18 18 -13 -19 29 -82 93 -62
64 -112 118 -110 121 3 2 81 -45 174 -105 156 -100 196 -121 196 -101 0 21
-45 120 -66 145 -14 16 -23 32 -20 34 3 3 28 0 56 -7 28 -7 53 -10 56 -8 2 3
-19 33 -46 68 -28 34 -49 64 -47 67 3 2 34 -10 69 -28 81 -40 112 -35 135 19
20 48 69 115 335 460 l218 282 -408 0 -407 0 -98 -130 -97 -130 -50 25 c-28
14 -50 21 -50 17 0 -5 13 -29 29 -53 17 -24 28 -45 26 -48 -3 -2 -44 21 -92
51 -183 115 -180 100 19 -108 43 -45 78 -85 78 -88 0 -8 -25 4 -103 51 -32 19
-60 33 -63 30 -3 -3 38 -60 90 -127 53 -67 96 -126 96 -131 0 -16 -50 15 -184
116 -137 102 -166 121 -166 108 0 -5 18 -39 40 -77 22 -38 39 -70 37 -72 -2
-2 -25 10 -52 27 -54 34 -95 52 -103 45 -3 -3 14 -30 37 -60 22 -30 41 -58 41
-61 0 -3 -25 11 -55 31 -30 21 -57 35 -60 32 -3 -2 15 -38 40 -79 25 -41 45
-78 45 -83 0 -4 -15 3 -32 16 -71 54 -171 119 -175 114 -5 -5 8 -22 95 -125
30 -37 49 -67 45 -74 -4 -6 -6 -26 -4 -44 2 -25 -1 -33 -14 -33 -12 0 -4 -16
29 -57 100 -125 129 -164 124 -168 -3 -3 -50 30 -106 72 -366 283 -430 335
-436 349 -5 12 -2 15 11 9 10 -4 27 -8 38 -10 11 -1 45 -17 75 -34 30 -17 59
-31 64 -31 5 0 -19 29 -54 65 -34 36 -60 68 -58 71 3 2 17 0 32 -5 14 -6 26
-8 26 -4 0 3 -39 47 -87 97 -49 50 -104 108 -123 130 l-35 38 31 -16 c18 -8
73 -41 124 -71 50 -31 94 -55 96 -52 2 2 -20 34 -49 70 -61 77 -92 127 -79
127 5 0 35 -19 68 -41 66 -46 61 -39 -54 84 -41 43 -71 81 -68 84 3 3 49 -27
101 -66 95 -71 125 -90 125 -76 0 4 -40 62 -90 130 -49 68 -90 128 -90 134 0
6 11 11 25 11 23 0 24 2 15 20 -6 12 -23 25 -37 31 -14 5 -45 24 -69 41 -24
17 -46 29 -48 27 -3 -2 16 -31 40 -64 25 -33 40 -61 35 -63 -19 -6 -84 19
-178 69 -50 27 -98 46 -107 43 -9 -3 -45 17 -93 53 -43 33 -91 68 -107 78 -29
19 -29 19 -18 0z m712 -1089 c137 -156 140 -162 60 -130 -50 20 -61 12 -30
-21 l24 -25 -35 6 c-52 10 -62 18 -89 71 -14 26 -40 70 -59 96 -18 26 -32 50
-29 52 2 2 30 -13 63 -35 33 -22 61 -38 63 -35 2 2 -15 28 -37 58 -23 29 -41
57 -41 60 0 21 29 -4 110 -97z m-46 -169 c8 -12 22 -48 32 -79 l17 -57 -57
-70 c-31 -39 -59 -71 -61 -71 -3 0 -5 74 -5 165 l0 166 30 -16 c16 -8 36 -25
44 -38z"/>
<path d="M10530 3460 c-120 -15 -260 -91 -355 -192 -109 -115 -169 -269 -167
-433 1 -267 181 -508 437 -587 95 -30 274 -31 355 -4 218 74 378 243 436 458
19 73 11 78 -133 78 -101 0 -113 -2 -113 -17 0 -68 -119 -219 -207 -264 -42
-21 -61 -24 -158 -24 -103 0 -113 2 -159 29 -77 45 -123 93 -158 163 -62 127
-46 303 37 416 50 67 141 124 212 133 143 18 233 -13 348 -119 l64 -58 95 67
95 68 -22 30 c-33 47 -115 124 -171 162 -78 51 -165 83 -263 94 -96 11 -93 11
-173 0z"/>
<path d="M5684 3387 c-23 -40 -164 -310 -314 -600 l-273 -528 -299 298 -298
298 297 297 298 298 -170 0 -170 0 -282 -282 -283 -283 0 283 0 282 -130 0
-130 0 0 -605 0 -605 130 0 130 0 0 158 0 158 65 64 65 65 223 -223 222 -222
293 0 294 0 36 80 37 80 293 0 293 0 36 -80 36 -80 138 0 c77 0 139 3 139 6 0
11 -616 1193 -628 1206 -4 4 -25 -25 -48 -65z m200 -734 l7 -23 -170 0 c-93 0
-172 3 -175 8 -2 4 34 88 82 186 l86 178 82 -164 c45 -89 84 -173 88 -185z"/>
<path d="M7567 3377 c-4 -45 -7 -319 -7 -609 l0 -528 130 0 130 0 2 339 3 340
385 -320 c212 -176 399 -331 416 -344 l31 -24 7 82 c3 45 6 319 6 610 l0 527
-130 0 -130 0 0 -341 c0 -200 -4 -339 -9 -337 -5 2 -186 152 -402 333 -216
182 -400 335 -409 342 -16 11 -18 5 -23 -70z"/>
<path d="M9333 3322 c-40 -76 -182 -350 -316 -610 l-244 -472 132 0 132 0 36
80 36 80 290 0 290 0 42 -80 41 -80 140 0 139 0 -60 113 c-32 61 -161 310
-286 551 -262 506 -288 556 -295 556 -3 0 -38 -62 -77 -138z m246 -684 c1 -5
-78 -8 -174 -8 -96 0 -175 3 -175 6 0 10 130 289 151 324 l22 35 88 -175 c48
-96 88 -178 88 -182z"/>
<path d="M11791 3405 c-17 -31 -158 -300 -312 -598 -155 -298 -286 -548 -292
-555 -8 -10 17 -12 127 -10 l137 3 33 75 33 75 297 3 297 2 36 -80 36 -80 133
0 c86 0 134 4 134 10 0 11 -607 1188 -620 1203 -4 5 -22 -17 -39 -48z m112
-587 c48 -95 88 -176 87 -180 0 -5 -79 -8 -176 -8 -164 0 -176 1 -170 18 15
39 161 341 166 342 3 0 45 -78 93 -172z"/>
<path d="M6460 2845 l0 -605 130 0 130 0 0 105 0 105 63 -1 62 -1 95 -103 95
-103 61 -1 c33 -1 109 2 167 5 l106 7 -107 114 c-131 140 -136 148 -97 176 17
11 56 47 88 79 201 203 172 554 -61 727 -109 82 -208 101 -529 101 l-203 0 0
-605z m536 344 c150 -72 182 -311 58 -435 -54 -55 -117 -74 -241 -74 l-93 0 0
273 0 272 116 -7 c87 -6 128 -13 160 -29z"/>
<path d="M4485 1961 c-127 -21 -218 -62 -305 -136 -169 -145 -243 -301 -243
-515 0 -57 6 -120 17 -159 51 -196 227 -387 418 -452 88 -30 268 -38 358 -15
211 53 397 224 464 428 31 92 51 244 36 263 -19 23 -99 27 -382 20 l-278 -8 0
-127 0 -127 92 -7 c50 -3 115 -6 145 -6 33 0 53 -4 53 -12 0 -18 -79 -86 -129
-110 -39 -20 -62 -23 -151 -23 -96 0 -109 2 -151 27 -58 34 -125 107 -152 166
-18 38 -22 66 -22 147 0 89 3 106 27 155 40 80 90 135 156 167 50 24 68 28
147 28 81 0 95 -3 144 -30 30 -17 81 -60 115 -97 53 -58 63 -65 81 -56 45 24
204 141 209 155 16 40 -137 196 -249 255 -118 61 -277 89 -400 69z m238 -67
c92 -21 155 -53 239 -120 58 -47 108 -101 108 -117 0 -7 -137 -107 -146 -107
-3 0 -30 24 -59 54 -61 62 -133 99 -223 116 -166 30 -334 -66 -414 -235 -29
-64 -30 -69 -26 -183 3 -104 7 -123 32 -171 60 -116 180 -203 297 -217 68 -8
177 10 231 37 89 45 198 183 168 213 -7 7 -67 12 -160 14 l-150 4 0 79 0 79
281 0 282 0 -7 -62 c-27 -243 -192 -454 -414 -530 -94 -32 -256 -32 -360 0
-136 42 -273 157 -346 291 -111 205 -75 497 82 673 78 86 203 164 302 188 60
14 207 11 283 -6z"/>
<path d="M5752 1917 c-44 -79 -505 -971 -563 -1091 -28 -58 -49 -112 -46 -121
5 -12 30 -15 149 -15 l143 0 41 78 41 77 274 2 274 3 35 -76 c24 -55 41 -79
60 -86 29 -12 280 -2 293 11 9 9 -244 518 -454 916 -140 266 -184 341 -203
348 -10 4 -24 -11 -44 -46z m235 -404 c203 -388 393 -755 393 -760 0 -2 -47
-3 -105 -3 l-105 0 -37 74 -36 74 -253 7 c-139 4 -278 4 -309 0 l-56 -7 -37
-74 -36 -74 -99 0 -99 0 65 123 c36 67 131 250 212 407 221 426 304 580 315
580 3 0 87 -156 187 -347z"/>
<path d="M5766 1488 c-31 -48 -176 -354 -178 -378 -3 -22 2 -25 52 -33 57 -9
305 -2 335 9 12 5 15 14 10 33 -9 38 -173 367 -189 381 -12 9 -18 7 -30 -12z
m126 -287 c16 -35 27 -65 25 -67 -2 -3 -63 -3 -135 -2 l-130 3 66 138 65 137
40 -72 c22 -40 53 -102 69 -137z"/>
<path d="M6515 1828 c-9 -189 -2 -1124 8 -1135 11 -11 273 -11 284 0 4 5 9
159 11 343 2 184 7 334 12 334 4 0 50 -31 101 -68 52 -38 129 -92 172 -121
l79 -53 41 28 c23 14 101 69 173 120 72 52 133 94 137 94 3 0 7 -150 8 -334 2
-184 7 -337 11 -341 12 -12 262 -17 278 -6 13 9 15 94 18 646 2 464 0 635 -8
635 -17 0 -113 -67 -393 -277 -142 -106 -262 -193 -266 -193 -4 0 -126 89
-271 198 -279 209 -367 272 -380 272 -4 0 -11 -64 -15 -142z m310 -140 c343
-260 351 -265 378 -249 12 8 147 108 299 222 152 115 279 209 282 209 4 0 6
-252 6 -560 l0 -560 -95 0 -95 0 0 113 c0 63 -3 222 -7 355 -5 186 -9 242 -19
242 -13 0 -72 -39 -281 -184 -71 -48 -118 -74 -125 -70 -7 4 -80 56 -163 114
-175 125 -222 154 -228 143 -3 -5 -8 -167 -13 -361 l-7 -352 -93 0 -94 0 0
566 c0 452 3 564 13 556 6 -5 116 -88 242 -184z"/>
<path d="M9147 1945 c-52 -19 -125 -74 -165 -124 -68 -85 -91 -178 -72 -296
13 -83 42 -136 105 -194 56 -52 120 -81 245 -111 77 -19 101 -30 128 -56 27
-27 32 -39 32 -79 0 -40 -5 -52 -34 -81 -30 -30 -40 -34 -84 -34 -62 0 -95 12
-139 51 l-35 30 -38 -23 c-80 -47 -200 -141 -200 -156 0 -26 97 -109 171 -146
38 -19 94 -40 126 -46 81 -17 215 -8 286 20 83 31 176 121 222 212 34 69 35
74 35 187 0 107 -2 121 -28 176 -16 33 -50 81 -76 106 -78 78 -129 99 -329
139 -68 14 -97 38 -97 80 0 72 83 93 161 41 42 -29 44 -29 72 -13 72 43 197
143 197 159 0 26 -86 100 -163 138 -67 34 -74 35 -176 34 -65 0 -121 -6 -144
-14z m288 -68 c32 -16 74 -39 93 -53 40 -31 37 -35 -55 -100 l-59 -42 -37 19
c-111 57 -219 12 -234 -98 -5 -36 -1 -45 32 -81 41 -46 70 -58 173 -71 139
-17 250 -91 301 -200 23 -49 26 -69 26 -156 0 -89 -3 -106 -28 -157 -30 -61
-114 -146 -177 -178 -84 -43 -237 -45 -342 -3 -47 18 -142 75 -152 91 -11 18
4 37 70 83 l66 47 65 -34 c79 -42 154 -46 212 -13 49 28 70 59 83 123 11 50
10 57 -15 108 -33 67 -70 90 -194 117 -105 23 -157 47 -214 98 -60 54 -82 104
-87 199 -4 72 -1 89 20 135 37 79 120 156 203 187 54 21 182 9 250 -21z"/>
<path d="M8063 1943 l-31 -4 -7 -122 c-9 -162 -2 -1113 8 -1124 11 -11 773
-11 784 0 7 8 8 255 1 262 -2 2 -110 7 -241 11 l-237 7 0 117 0 118 214 4
c118 1 218 7 223 11 11 11 11 253 0 264 -5 4 -105 10 -223 11 l-214 4 0 78 0
79 180 3 c130 2 183 7 192 16 15 15 19 244 5 259 -9 8 -598 14 -654 6z m597
-137 l0 -84 -185 -4 c-151 -2 -188 -6 -196 -18 -11 -17 -6 -236 6 -248 3 -4
105 -9 226 -10 l219 -4 0 -83 0 -84 -219 -3 c-121 -2 -223 -7 -228 -11 -10
-11 -10 -324 1 -334 4 -4 115 -10 247 -12 l239 -3 0 -79 0 -79 -345 0 -345 0
0 570 0 570 290 0 290 0 0 -84z"/>
</g>
</svg>
