<?xml version="1.0" standalone="no"?>
<!DOCTYPE svg PUBLIC "-//W3C//DTD SVG 20010904//EN"
 "http://www.w3.org/TR/2001/REC-SVG-20010904/DTD/svg10.dtd">
<svg version="1.0" xmlns="http://www.w3.org/2000/svg"
 width="1281.000000pt" height="408.000000pt" viewBox="0 0 1281.000000 408.000000"
 preserveAspectRatio="xMidYMid meet">

<g transform="translate(0.000000,408.000000) scale(0.100000,-0.100000)"
fill="#000000" stroke="none">
<path d="M0 2040 l0 -2040 6405 0 6405 0 0 2040 0 2040 -6405 0 -6405 0 0
-2040z m767 1623 c89 -69 113 -80 68 -33 -40 41 -22 38 60 -13 66 -40 161 -77
199 -77 9 0 31 -21 49 -47 17 -25 59 -81 91 -122 89 -114 83 -106 66 -96 -8 5
-52 38 -97 74 -46 35 -96 73 -113 84 -57 36 -34 -8 51 -97 l81 -86 -53 36
c-58 38 -77 32 -40 -15 12 -14 25 -35 30 -46 5 -11 31 -45 57 -75 35 -39 41
-50 22 -38 -154 99 -270 169 -273 166 -3 -2 54 -62 126 -133 72 -71 135 -137
140 -148 10 -17 8 -17 -30 3 -23 11 -41 17 -41 12 0 -4 31 -39 70 -77 38 -38
68 -71 65 -73 -2 -2 -33 13 -69 33 -36 20 -70 34 -75 31 -5 -4 -12 -2 -16 4
-9 14 -25 13 -25 -2 0 -7 12 -29 27 -51 15 -21 28 -48 30 -60 2 -11 18 -39 36
-61 55 -68 53 -72 -11 -27 -33 24 -65 41 -71 40 -6 -2 8 -28 31 -58 38 -49 39
-52 12 -35 -25 17 -24 12 14 -34 24 -28 48 -54 53 -58 5 -3 9 -10 9 -15 0 -5
-18 0 -40 11 l-40 20 0 -185 0 -186 28 33 c15 18 47 57 71 86 l43 53 -21 58
c-22 60 -26 91 -13 91 4 0 30 -12 57 -27 54 -28 53 -25 -4 41 -23 25 -23 28
-6 21 136 -54 135 -51 -32 137 -53 59 -101 104 -107 101 -6 -3 -8 -3 -4 2 4 4
2 15 -5 23 -26 33 31 -9 218 -159 229 -184 306 -241 313 -234 6 6 -68 102
-150 197 -44 50 -53 65 -37 61 21 -6 22 -4 15 35 -7 48 -2 51 33 20 l25 -23
-19 30 c-10 17 -53 67 -94 113 -42 45 -78 87 -80 93 -4 14 66 -31 154 -97 38
-29 72 -51 74 -48 2 2 -16 34 -41 71 -24 38 -53 82 -64 98 l-19 30 30 -19 c17
-10 58 -41 93 -68 34 -28 62 -47 62 -44 0 3 -30 43 -66 88 -40 48 -62 84 -55
86 7 2 51 -21 98 -53 47 -31 82 -51 77 -43 -4 7 -30 46 -56 87 -26 40 -48 78
-48 83 0 11 40 -15 120 -78 140 -112 240 -172 240 -146 0 5 -48 68 -106 142
-115 143 -115 143 21 53 27 -18 53 -33 57 -33 22 0 -3 32 -117 150 -165 171
-165 177 1 70 60 -39 110 -66 112 -60 2 5 -10 29 -27 52 -17 23 -31 46 -31 51
0 5 21 -3 46 -18 38 -22 48 -25 55 -14 8 15 40 58 111 149 24 31 50 66 58 78
l15 22 398 -2 398 -3 -267 -345 c-161 -207 -270 -357 -274 -375 -4 -19 -16
-35 -33 -43 -25 -12 -33 -10 -94 23 -99 54 -108 43 -34 -43 34 -39 60 -72 58
-72 -3 0 -24 7 -47 15 -49 17 -80 19 -80 5 0 -5 16 -28 36 -50 20 -22 34 -40
30 -40 -3 0 1 -18 10 -40 9 -21 14 -44 12 -50 -2 -7 -86 43 -187 109 -242 160
-255 161 -103 7 53 -54 91 -96 85 -92 -21 11 -15 -16 10 -54 55 -82 63 -96 44
-81 -15 12 -17 11 -17 -7 0 -25 -15 -37 -71 -56 l-46 -16 -164 110 c-155 104
-189 122 -189 101 0 -12 79 -100 221 -246 94 -97 149 -173 149 -205 0 -16 -29
-12 -58 8 -51 35 -57 36 -29 3 15 -18 27 -39 27 -46 0 -8 25 -49 56 -92 149
-207 459 -682 860 -1318 l221 -350 -406 -3 c-316 -2 -408 1 -417 10 -9 10
-601 926 -803 1244 l-26 40 -148 -179 -147 -179 0 -469 0 -469 -375 0 -375 0
0 1441 0 1441 38 -28 c20 -15 59 -46 86 -67 63 -49 106 -72 106 -56 0 15 -42
67 -182 226 -89 102 -103 121 -82 119 13 -2 27 -6 30 -9 17 -17 22 8 8 36
l-17 32 34 -26 c46 -35 79 -52 79 -41 0 6 -37 52 -82 103 -46 51 -76 89 -68
84 8 -5 41 -26 73 -47 31 -21 57 -37 57 -36 0 2 -31 35 -69 74 -82 84 -118
142 -50 79 117 -108 134 -111 69 -15 -23 34 -40 64 -37 67 8 7 55 -20 139 -80
l77 -56 -22 37 c-44 70 -43 68 -12 48 17 -10 39 -26 50 -36 27 -24 65 -43 65
-32 0 4 -23 34 -52 66 l-52 59 44 -28 c25 -16 59 -38 75 -50 79 -58 65 -36
-70 104 l-80 83 60 -43 c33 -24 97 -72 142 -106z m320 -38 c55 -36 95 -76 61
-62 -49 20 -48 20 -42 1 8 -23 3 -17 -56 55 -50 61 -49 61 37 6z m4893 -655
c138 -267 281 -540 316 -607 l65 -123 -133 0 -134 0 -42 85 -42 85 -293 -2
-292 -3 -39 -82 -40 -83 -285 0 -286 0 -230 230 -230 230 -67 -67 -68 -67 0
-163 0 -163 -120 0 -120 0 0 600 0 600 120 0 120 0 0 -280 c0 -154 3 -280 8
-280 4 0 133 126 287 280 l280 280 160 0 160 0 -288 -288 c-158 -158 -287
-292 -287 -297 0 -6 134 -144 299 -309 l298 -298 314 605 c172 333 314 605
315 604 1 -1 115 -220 254 -487z m2011 134 l424 -355 3 345 2 346 125 0 125 0
0 -606 c0 -482 -3 -604 -12 -597 -7 4 -199 162 -426 350 -227 189 -414 343
-417 343 -3 0 -5 -155 -5 -345 l0 -345 -125 0 -125 0 0 610 c0 336 2 610 4
610 2 0 194 -160 427 -356z m2784 341 c115 -29 203 -81 293 -172 46 -46 82
-88 80 -93 -2 -6 -43 -39 -93 -74 l-89 -64 -57 59 c-38 40 -79 70 -125 92 -62
29 -78 32 -159 32 -79 0 -97 -3 -150 -29 -76 -38 -140 -104 -179 -186 -28 -59
-31 -74 -31 -165 0 -91 3 -106 31 -166 41 -86 89 -138 166 -180 60 -32 68 -34
163 -34 87 0 107 3 157 27 95 44 170 137 212 261 5 15 20 17 126 17 141 0 137
6 92 -126 -35 -100 -85 -176 -166 -251 -77 -73 -130 -105 -232 -139 -97 -32
-242 -37 -341 -11 -201 53 -367 209 -430 404 -111 346 82 704 431 798 69 19
228 19 301 0z m-1047 -595 c172 -331 312 -603 312 -605 0 -3 -59 -5 -130 -5
l-130 0 -42 85 -42 85 -293 0 -293 0 -39 -85 -40 -85 -126 0 -127 0 87 168
c349 676 541 1042 546 1042 3 0 145 -270 317 -600z m2411 1 c171 -330 311
-602 311 -605 0 -4 -59 -6 -130 -6 l-130 0 -42 85 -42 85 -291 0 -291 0 -42
-85 -42 -85 -125 0 -125 0 110 213 c60 116 201 389 313 604 111 216 205 393
208 393 4 0 147 -270 318 -599z m-5116 573 c168 -43 299 -169 342 -328 24 -87
17 -237 -14 -318 -33 -85 -99 -169 -169 -214 -34 -21 -61 -43 -61 -47 -1 -4
55 -67 123 -140 l124 -132 -160 -3 -160 -3 -100 106 -100 105 -64 0 -64 0 0
-105 0 -105 -125 0 -125 0 0 600 0 600 246 0 c191 0 260 -3 307 -16z m-2225
-1496 c40 -15 101 -45 135 -67 89 -58 197 -174 197 -211 0 -17 -198 -170 -219
-170 -5 0 -26 23 -46 50 -70 95 -168 145 -285 145 -65 0 -85 -5 -142 -33 -224
-110 -265 -427 -77 -596 116 -104 287 -115 422 -26 39 27 87 83 87 103 0 4
-69 8 -152 9 l-153 3 -3 121 c-2 94 1 124 11 133 11 8 102 11 333 9 l319 -3
-2 -95 c-5 -267 -182 -509 -438 -597 -69 -23 -96 -27 -200 -27 -200 -1 -320
48 -460 189 -130 129 -184 265 -185 456 0 152 51 297 143 406 90 106 199 179
319 214 97 29 297 22 396 -13z m1340 -591 c177 -342 320 -628 317 -635 -3 -10
-40 -12 -157 -10 l-153 3 -40 77 -40 78 -278 0 -277 0 -38 -77 -37 -78 -145 0
c-125 0 -145 2 -148 16 -2 9 126 265 284 570 356 688 351 679 372 679 12 0
106 -173 340 -623z m726 388 c170 -129 313 -235 318 -235 4 0 148 106 318 236
187 141 317 234 328 232 16 -3 17 -44 17 -633 l0 -630 -145 0 -145 0 -5 348
-5 348 -180 -129 c-144 -105 -183 -128 -197 -121 -10 5 -92 63 -183 129 -90
66 -167 120 -170 120 -2 0 -6 -156 -7 -347 l-3 -348 -140 0 -140 0 -3 633 c-2
597 -1 632 15 632 10 0 157 -106 327 -235z m2596 203 c56 -25 170 -121 170
-142 0 -13 -204 -166 -221 -166 -6 0 -25 11 -43 25 -64 49 -143 41 -166 -16
-28 -66 26 -112 145 -125 184 -20 324 -123 370 -272 22 -69 23 -190 2 -263
-33 -111 -140 -225 -254 -270 -49 -19 -76 -23 -168 -23 -122 1 -189 19 -274
74 -60 38 -135 115 -127 129 4 6 57 47 118 91 l111 81 31 -30 c57 -56 149 -77
206 -48 42 21 72 76 67 120 -11 82 -47 109 -180 136 -165 33 -260 100 -315
220 -37 80 -37 202 0 282 44 96 132 178 228 213 70 25 228 17 300 -16z m-745
-123 l0 -130 -192 -3 -193 -2 0 -90 0 -90 223 -2 222 -3 0 -130 0 -130 -222
-3 -223 -2 0 -130 0 -130 245 0 245 0 0 -135 0 -135 -392 2 -393 3 -3 610 c-1
336 0 616 3 623 3 10 77 12 342 10 l338 -3 0 -130z"/>
<path d="M5621 2818 l-87 -183 179 -3 c99 -1 182 -1 184 2 5 5 -175 366 -183
366 -3 0 -45 -82 -93 -182z"/>
<path d="M9309 2824 c-46 -97 -85 -181 -87 -185 -2 -5 80 -9 182 -9 l186 0
-92 185 c-51 102 -95 185 -99 185 -3 0 -43 -79 -90 -176z"/>
<path d="M11722 2825 c-51 -103 -91 -190 -89 -192 2 -2 85 -2 184 -1 l179 3
-91 189 -92 190 -91 -189z"/>
<path d="M6720 2944 l0 -277 108 6 c134 7 173 20 232 77 81 79 101 212 49 329
-27 61 -54 89 -114 117 -43 21 -65 24 -162 24 l-113 0 0 -276z"/>
<path d="M4495 1913 c-224 -30 -424 -208 -490 -437 -23 -78 -23 -230 0 -316
27 -103 71 -177 160 -266 121 -122 244 -174 415 -174 101 0 180 18 270 62 83
41 212 167 258 255 38 73 72 196 72 265 l0 48 -285 0 -286 0 3 -87 3 -88 155
-3 c85 -1 159 -7 163 -11 15 -15 -43 -109 -96 -156 -88 -80 -226 -112 -347
-81 -155 40 -269 170 -288 326 -18 154 24 277 128 373 84 78 146 100 270 95
82 -4 103 -9 155 -35 34 -17 83 -55 113 -87 l53 -56 79 57 79 57 -19 27 c-11
14 -47 52 -80 82 -123 115 -312 173 -485 150z"/>
<path d="M5764 1829 c-41 -82 -427 -827 -501 -966 l-64 -123 104 0 104 0 36
80 36 80 309 0 308 0 39 -80 39 -80 108 0 c59 0 108 1 108 3 0 7 -582 1123
-590 1131 -5 5 -20 -15 -36 -45z m131 -519 c52 -104 95 -199 95 -210 0 -19 -6
-20 -200 -20 -155 0 -202 3 -206 13 -7 20 183 407 201 407 9 0 50 -69 110
-190z"/>
<path d="M5721 1288 c-35 -73 -65 -139 -68 -145 -4 -10 27 -13 135 -13 l141 0
-66 138 c-36 75 -69 141 -73 145 -4 4 -35 -52 -69 -125z"/>
<path d="M6560 1316 l0 -576 105 0 105 0 0 361 0 361 23 -4 c12 -3 104 -64
204 -137 118 -85 187 -130 195 -125 7 4 93 66 190 137 105 76 185 127 195 125
17 -3 18 -28 21 -361 l2 -357 100 0 100 0 0 576 0 576 -32 -24 c-18 -13 -156
-118 -307 -232 -150 -114 -279 -205 -286 -202 -7 2 -142 103 -301 223 -159
121 -295 223 -301 227 -10 6 -13 -111 -13 -568z"/>
<path d="M9197 1906 c-106 -29 -211 -135 -238 -240 -26 -106 11 -227 91 -300
54 -48 110 -73 208 -92 131 -25 167 -44 201 -112 17 -33 16 -124 -3 -160 -51
-98 -195 -119 -301 -43 l-40 29 -82 -61 c-93 -69 -93 -65 0 -127 127 -85 306
-105 429 -48 305 142 299 574 -10 682 -24 9 -79 20 -123 25 -133 17 -179 53
-179 139 0 48 4 58 34 88 31 31 39 34 93 34 40 0 68 -6 91 -20 18 -11 37 -20
43 -20 5 0 44 25 86 56 l77 57 -30 24 c-52 43 -108 72 -169 87 -70 19 -113 19
-178 2z"/>
<path d="M8080 1320 l0 -580 350 0 350 0 0 90 0 90 -247 2 -248 3 -3 164 c-2
125 1 166 10 173 7 4 109 8 226 8 l212 0 0 90 0 90 -222 2 -223 3 0 130 0 130
193 3 192 2 0 90 0 90 -295 0 -295 0 0 -580z"/>
</g>
</svg>
